HIERARCHY
ROOT hip
{
	OFFSET 0.000000 0.000000 0.000000 
	CHANNELS 6 Xposition Yposition Zposition Xrotation Zrotation Yrotation
	JOINT abdomen
	{
		OFFSET 0.000000 3.402643 0.000000 
		CHANNELS 3 Xrotation Zrotation Yrotation
		JOINT chest
		{
			OFFSET 0.000000 8.438565 -0.680529 
			CHANNELS 3 Xrotation Zrotation Yrotation
			JOINT neck
			{
				OFFSET 0.000000 10.207942 -0.272212 
				CHANNELS 3 Xrotation Zrotation Yrotation
				JOINT head
				{
					OFFSET 0.000000 3.130431 0.000000 
					CHANNELS 3 Xrotation Zrotation Yrotation
					End Site
					{
						OFFSET 0.000000 3.130435 0.000000 
					}
				}
			}
			JOINT lCollar
			{
				OFFSET 3.470700 6.669187 -0.816635 
				CHANNELS 3 Yrotation Zrotation Xrotation
				JOINT lShldr
				{
					OFFSET 3.198488 0.000000 0.000000 
					CHANNELS 3 Zrotation Yrotation Xrotation
					JOINT lForeArm
					{
						OFFSET 10.139888 0.000000 0.000000 
						CHANNELS 3 Yrotation Zrotation Xrotation
						JOINT lHand
						{
							OFFSET 8.370511 0.000000 0.000000 
							CHANNELS 3 Zrotation Yrotation Xrotation
							End Site
							{
								OFFSET 4.083176 0.000000 0.000000 
							}
						}
					}
				}
			}
			JOINT rCollar
			{
				OFFSET -3.470700 6.669187 -0.816635 
				CHANNELS 3 Yrotation Zrotation Xrotation
				JOINT rShldr
				{
					OFFSET -3.198488 0.000000 0.000000 
					CHANNELS 3 Zrotation Yrotation Xrotation
					JOINT rForeArm
					{
						OFFSET -10.139888 0.000000 0.000000 
						CHANNELS 3 Yrotation Zrotation Xrotation
						JOINT rHand
						{
							OFFSET -8.370511 0.000000 0.000000 
							CHANNELS 3 Zrotation Yrotation Xrotation
							End Site
							{
								OFFSET -4.083176 0.000000 0.000000 
							}
						}
					}
				}
			}
		}
	}
	JOINT lThigh
	{
		OFFSET 5.308129 -1.633274 1.361059 
		CHANNELS 3 Xrotation Zrotation Yrotation
		JOINT lShin
		{
			OFFSET -2.041588 -20.007561 0.000000 
			CHANNELS 3 Xrotation Zrotation Yrotation
			JOINT lFoot
			{
				OFFSET 0.000000 -19.190928 -1.224953 
				CHANNELS 3 Xrotation Yrotation Zrotation
				End Site
				{
					OFFSET 0.000000 -2.449906 4.627600 
				}
			}
		}
	}
	JOINT rThigh
	{
		OFFSET -5.308129 -1.633274 1.361059 
		CHANNELS 3 Xrotation Zrotation Yrotation
		JOINT rShin
		{
			OFFSET 2.041588 -20.007561 0.000000 
			CHANNELS 3 Xrotation Zrotation Yrotation
			JOINT rFoot
			{
				OFFSET 0.000000 -19.190928 -1.224953 
				CHANNELS 3 Xrotation Yrotation Zrotation
				End Site
				{
					OFFSET 0.000000 -2.449906 4.627600 
				}
			}
		}
	}
}
MOTION
Frames: 10
Frame Time: 0.033333
-58.118645 49.224010 -58.956524 16.162111 -21.269531 49.390987 16.708986 0.781250 -12.392419 -10.673829 7.314454 -10.742188 -8.994142 3.349610 6.875001 7.890625 -2.822266 7.431159 2.275391 -1.416016 -0.126712 -87.324219 -23.271484 11.630858 -119.052734 3.076172 38.789063 15.703124 16.425779 4.462891 5.166016 -11.132813 -0.017646 55.576172 -45.351566 26.640623 88.095703 -1.298828 13.095924 -29.082033 15.234375 -8.457031 -19.961199 4.187556 -1.837732 37.001652 -0.919812 -2.604373 6.095032 -3.441096 -11.578860 -81.267616 -5.107344 -0.547722 106.517883 -3.710273 3.142477 30.188814 3.807135 9.872746 
-53.858746 50.608444 -54.319824 15.810546 -22.324219 46.757813 15.693360 3.378906 -11.308018 -10.498047 6.611328 -10.740858 -7.919921 4.570313 7.735153 8.066405 -5.810547 8.486328 3.330078 -0.195313 -0.165982 -86.669922 -21.904297 10.800781 -121.582039 3.339844 41.816406 15.703126 18.417969 5.071446 6.162109 -12.558594 0.002123 52.998047 -52.246090 29.367279 89.960938 -1.611328 18.174103 -29.990234 13.847656 -7.985942 -12.984488 8.229781 2.998694 32.780228 -1.085406 -2.439006 20.133375 -5.995265 -10.082377 -80.352783 -1.621773 0.590488 87.695839 -2.821310 3.926992 27.646402 3.774323 9.870189 
-49.626137 51.582130 -49.853001 16.699219 -22.509764 45.283203 14.824217 4.423828 -11.074218 -10.673829 7.314454 -10.742188 -7.197265 4.140625 8.350313 7.880859 -8.095703 9.189453 3.330078 -0.537109 -0.146393 -85.087891 -18.701172 10.514448 -122.402344 3.164063 40.664063 19.951174 19.462891 6.780598 7.851563 -13.496094 -0.046549 53.242188 -60.205078 27.335278 91.845703 -2.294922 25.351952 -37.031250 17.861326 -13.251954 -9.118876 8.376493 4.925524 36.259743 -0.749990 -2.864465 24.525314 -3.166812 -10.885111 -76.901489 -1.415777 1.282598 67.527237 -1.425085 3.714742 23.910448 2.694060 10.812525 
-45.404823 51.833324 -45.531368 17.392578 -21.445311 45.351566 14.990235 4.492188 -11.229704 -10.136718 8.017578 -10.731060 -7.880859 4.199219 8.701887 8.056641 -9.150390 9.363682 3.681641 -1.064453 -0.117188 -84.453125 -15.869141 8.688738 -120.625008 3.330078 42.812500 14.414064 12.587892 3.185724 7.851562 -13.154296 -0.097656 59.921871 -62.519527 17.871094 92.216797 -2.802735 31.318361 -38.408207 20.449217 -15.585937 -9.636260 6.804744 3.719055 50.879700 -0.089702 -3.125264 28.136211 -5.310385 -9.510941 -70.801689 -2.998337 1.310110 47.710464 -0.315739 2.983618 20.241058 2.087606 10.901421 
-41.095173 51.366428 -41.161423 17.578123 -19.873047 45.107422 14.677733 4.062500 -10.654296 -8.193359 9.238281 -9.822651 -8.427734 3.759766 8.242187 7.705078 -11.435547 9.011735 3.681641 -1.591797 -0.078125 -84.394531 -12.744141 9.314252 -117.207031 3.623047 46.405632 12.832032 13.232422 3.039345 6.669922 -12.060548 -0.166016 68.095703 -57.578125 7.382812 92.822266 -2.783203 31.328127 -35.751953 20.859377 -14.518006 -11.583687 4.537294 2.766531 68.976021 0.589040 -3.604273 30.941324 -6.473140 -8.726622 -64.469589 -4.404063 0.426702 34.723377 0.580238 2.390960 16.913639 2.058872 11.080233 
-36.630013 50.449013 -36.609364 17.041016 -18.457031 44.118000 14.091797 4.199219 -8.680925 -8.544922 9.414063 -7.898794 -5.478516 2.656250 6.992188 7.353516 -12.314453 7.781121 2.099609 -1.240234 -0.136719 -85.087891 -6.630859 11.434418 -112.275391 3.603516 45.947266 14.023438 15.478517 3.742842 5.546875 -8.486328 -0.047387 68.076164 -51.005859 5.341797 93.701172 -2.558594 30.654732 -32.187500 15.878905 -9.899672 -13.374312 3.152712 4.299594 86.503212 1.758495 -3.979048 31.506016 -2.794259 -10.909096 -59.635960 -4.580344 -2.491759 33.487999 1.052839 2.096899 15.056042 0.858461 11.635220 
-32.414509 49.151951 -32.018009 15.986329 -18.291016 42.184437 13.681640 4.394531 -5.937500 -8.886718 11.699219 -5.085910 -3.916016 1.064453 6.025572 7.353516 -13.896485 6.550389 1.923828 -1.943359 -0.116856 -86.064453 -0.976563 13.203125 -105.683594 3.398438 42.206451 12.021485 17.753906 3.655323 4.541016 -5.302734 -0.107422 65.976563 -40.507813 4.804688 94.267578 -2.490234 28.379332 -28.320313 10.683595 -5.886860 -17.688351 4.518542 6.986547 103.367783 2.575880 -3.757938 32.034794 -1.786723 -11.136396 -54.288845 -3.182652 -7.512607 37.014706 0.517470 2.294337 12.204888 3.036959 11.242480 
-28.459698 47.594082 -27.721428 15.634766 -19.345703 40.074890 12.744140 5.576172 -2.382813 -9.052734 12.929688 -1.748047 -3.955078 -0.712891 5.078125 6.464844 -14.248046 5.507813 2.275391 -3.349610 -0.048258 -85.927734 4.589844 14.492187 -98.574219 3.115234 39.687496 13.300781 16.894531 3.964844 3.681641 -2.119140 -0.048828 64.833984 -27.099611 5.122504 94.726563 -2.402344 27.685551 -27.060547 11.611328 -6.113281 -26.910343 7.020097 8.560656 118.453224 3.668371 -3.651958 35.731373 -5.840457 -8.290595 -50.703053 -1.240685 -10.490818 43.872032 0.456136 2.432587 -1.223307 4.559670 11.938789 
-25.012512 46.503460 -23.539873 14.228516 -21.093748 37.968750 13.535155 7.089843 1.318359 -7.812500 13.632813 1.611328 -7.646484 -0.595703 4.706938 7.167968 -16.357422 5.322267 1.572266 -3.173828 -0.097656 -86.406250 10.888672 11.884765 -94.199219 3.164063 38.544384 14.824219 19.062500 4.921875 4.384766 -0.546875 -0.136626 65.849609 -9.443359 6.923829 96.445313 -2.373047 27.753908 -27.177736 12.236327 -6.308593 -41.256355 10.682431 6.326962 129.559189 4.234435 -2.931294 39.274498 -10.423555 -4.469522 -46.831039 3.847498 -8.773143 50.004421 0.074689 3.261969 -10.322656 -0.885846 11.839560 
-21.344986 46.560444 -19.553604 15.996095 -20.224609 34.908733 13.906250 4.833985 3.974609 -7.822266 12.578126 4.601736 -7.314454 0.175781 4.033201 5.410157 -15.830078 4.987570 0.517578 -0.888671 -0.175630 -85.253906 19.111326 10.302735 -92.470703 2.968750 36.942856 15.175782 22.539063 5.980306 6.318359 -1.591797 -0.009494 71.728516 5.166016 8.184475 98.515625 -2.792969 32.109379 -30.527346 14.863280 -8.642578 -58.024624 9.657604 4.073263 131.478302 4.582999 -3.210854 40.158802 -8.999646 -5.366059 -40.135899 4.540596 -4.271398 50.177158 0.113795 3.103318 -13.118375 -1.143991 11.799290 
